<svg width="50" height="50" viewBox="0 0 50 50" fill="none" xmlns="http://www.w3.org/2000/svg">
<path d="M35.87 37.1225C35.3074 37.6851 34.5444 38.0011 33.7488 38.0011C32.9531 38.0011 32.1901 37.6851 31.6275 37.1225L25 29.5475L18.3725 37.12C18.0948 37.4023 17.7639 37.6268 17.3989 37.7806C17.034 37.9344 16.6422 38.0144 16.2462 38.016C15.8502 38.0176 15.4578 37.9408 15.0916 37.79C14.7254 37.6392 14.3927 37.4174 14.1127 37.1373C13.8326 36.8573 13.6108 36.5246 13.46 36.1584C13.3092 35.7922 13.2324 35.3998 13.234 35.0038C13.2356 34.6078 13.3156 34.216 13.4694 33.8511C13.6232 33.4861 13.8477 33.1552 14.13 32.8775L21.025 25.0025L14.1275 17.1225C13.8452 16.8448 13.6207 16.5139 13.4669 16.1489C13.3131 15.784 13.2331 15.3922 13.2315 14.9962C13.2299 14.6002 13.3067 14.2078 13.4575 13.8416C13.6083 13.4754 13.8301 13.1427 14.1102 12.8627C14.3902 12.5826 14.7229 12.3608 15.0891 12.21C15.4553 12.0592 15.8477 11.9824 16.2437 11.984C16.6397 11.9856 17.0315 12.0656 17.3964 12.2194C17.7614 12.3732 18.0923 12.5977 18.37 12.88L25 20.4575L31.6275 12.88C31.9052 12.5977 32.2361 12.3732 32.6011 12.2194C32.966 12.0656 33.3578 11.9856 33.7538 11.984C34.1498 11.9824 34.5422 12.0592 34.9084 12.21C35.2746 12.3608 35.6073 12.5826 35.8873 12.8627C36.1674 13.1427 36.3892 13.4754 36.54 13.8416C36.6908 14.2078 36.7676 14.6002 36.766 14.9962C36.7644 15.3922 36.6844 15.784 36.5306 16.1489C36.3768 16.5139 36.1523 16.8448 35.87 17.1225L28.975 25.0025L35.87 32.8775C36.1489 33.1561 36.3702 33.487 36.5212 33.8512C36.6722 34.2154 36.7499 34.6058 36.7499 35C36.7499 35.3942 36.6722 35.7846 36.5212 36.1488C36.3702 36.513 36.1489 36.8439 35.87 37.1225V37.1225Z" fill="white"/>
</svg>
